<svg width="166" height="151" viewBox="0 0 166 151" fill="none" xmlns="http://www.w3.org/2000/svg">
<path d="M120.431 112.741C141.186 91.9857 141.186 58.3352 120.431 37.5802C99.6764 16.8252 66.0259 16.8253 45.2709 37.5802C24.5159 58.3352 24.5159 91.9857 45.2709 112.741C66.0259 133.496 99.6764 133.496 120.431 112.741Z" fill="#4AB6B8"/>
<path d="M95.1818 100.83C89.2118 95.4025 76.1868 95.4025 71.3018 100.83C65.6288 107.043 60.8987 114.064 57.0417 121.623C64.6847 125.878 73.4858 128.306 82.8548 128.306C93.8508 128.306 104.067 124.966 112.545 119.246C107.617 112.546 101.611 106.582 95.1818 100.83Z" fill="#F98C87"/>
<path d="M92.9197 112.533C86.9497 108.191 82.1057 108.734 76.6787 112.533C72.6007 115.252 68.3057 121.333 65.9297 125.549C71.2457 127.335 76.9367 128.306 82.8547 128.306C90.1357 128.306 97.0697 126.834 103.388 124.185C101.075 121.133 96.3077 114.791 92.9197 112.533Z" fill="#F6CAA6"/>
<path opacity="0.2" d="M103.392 108.624C100.776 105.954 98.0217 103.37 95.1827 100.83C89.2127 95.4025 76.1877 95.4025 71.3027 100.83C67.7337 104.739 64.5387 108.969 61.6987 113.45C84.7927 122.901 104.644 109.902 103.392 108.624Z" fill="black"/>
<path d="M76.6787 38.4655C76.6787 38.4655 70.9777 10.4415 46.6137 7.87652C22.2497 5.31152 -10.6873 31.0765 3.36967 48.7175C16.6417 65.3725 45.2247 24.4875 45.2247 24.4875C45.2247 24.4875 59.1037 25.2355 68.8987 41.0525L76.6787 38.4655Z" fill="#F98C87"/>
<path d="M49.6167 20.8645C47.9297 21.7075 46.4237 22.9285 45.3057 24.4925C46.3987 24.5775 59.5167 25.9035 68.8977 41.0515L72.7897 39.2305C70.7967 31.5845 67.9117 24.7215 61.3547 21.2085C57.7087 19.2555 53.3167 19.0155 49.6167 20.8645Z" fill="#F6CAA6"/>
<path d="M89.0308 38.4655C89.0308 38.4655 94.7318 10.4415 119.096 7.87652C143.46 5.31152 176.397 31.0765 162.34 48.7175C149.068 65.3725 120.485 24.4875 120.485 24.4875C120.485 24.4875 106.606 25.2355 96.8118 41.0525L89.0308 38.4655Z" fill="#F98C87"/>
<path d="M116.093 20.8645C117.78 21.7075 119.286 22.9285 120.404 24.4925C119.311 24.5775 106.193 25.9035 96.8117 41.0515L92.9197 39.2305C94.9117 31.5845 97.7977 24.7215 104.355 21.2085C108.001 19.2555 112.393 19.0155 116.093 20.8645Z" fill="#F6CAA6"/>
<path d="M83.7846 85.6335C71.8446 78.0355 56.1056 74.2365 43.0806 79.1205C41.9156 79.5495 40.8376 80.1025 39.8306 80.7505C40.0356 99.5835 56.5496 110 90.7686 105.218C105.183 103.204 124.056 99.2975 125.865 80.8645C125.976 79.7335 125.977 78.5705 125.88 77.3855C111.34 73.7525 96.1996 77.1915 83.7846 85.6335Z" fill="#F6CAA6"/>
<path d="M85.7037 34.0025C70.7667 32.1935 42.6037 54.4775 40.0717 76.1695C39.8877 77.7485 39.8147 79.2725 39.8317 80.7505C40.8377 80.1025 41.9157 79.5495 43.0817 79.1205C56.1067 74.2355 71.8457 78.0345 83.7857 85.6335C96.1997 77.1915 111.341 73.7525 125.882 77.3855C124.4 59.2575 99.7247 35.7005 85.7037 34.0025Z" fill="#F98C87"/>
<path d="M84.2366 86.0855C86.2766 85.5905 87.9246 83.0615 87.9246 83.0615C87.9246 83.0615 94.3356 83.6355 92.5576 79.5725C90.6586 75.2305 73.8796 77.5345 74.5136 80.9735C75.1476 84.4115 79.0556 82.9875 79.0556 82.9875C79.0556 82.9875 81.9506 86.6405 84.2366 86.0855Z" fill="#2B0020"/>
<path d="M84.7347 34.7525C84.7347 34.7525 88.3976 33.9385 87.8556 32.0385C87.3126 30.1395 85.0486 30.1005 83.6846 32.0385C83.6846 32.0385 86.5686 28.6465 83.6846 27.8325C80.8006 27.0185 81.0716 32.3095 81.0716 32.3095C81.0716 32.3095 80.5286 29.9915 79.1716 30.2005C77.8146 30.4095 77.4076 34.3445 79.1716 35.5655C80.9356 36.7885 84.7347 34.7525 84.7347 34.7525Z" fill="#F98C87"/>
<path d="M75.8696 94.2205C75.7956 94.2205 75.7227 94.2195 75.6477 94.2175C72.9907 94.1435 70.6196 92.7725 68.5986 90.1435C68.1426 89.5495 68.2536 88.6975 68.8476 88.2405C69.4426 87.7845 70.2937 87.8955 70.7507 88.4895C72.2497 90.4395 73.9226 91.4545 75.7236 91.5045C79.3386 91.6305 82.6247 87.9055 82.6567 87.8675C83.1447 87.3025 83.9946 87.2365 84.5626 87.7185C87.0926 89.8655 89.5676 90.7945 91.9206 90.4725C95.5456 89.9805 97.8346 86.6705 97.8566 86.6375C98.2776 86.0185 99.1206 85.8555 99.7396 86.2745C100.36 86.6925 100.525 87.5315 100.109 88.1525C99.9907 88.3285 97.1527 92.4855 92.3167 93.1575C89.4877 93.5525 86.6267 92.6825 83.7947 90.5745C82.3547 91.9175 79.3736 94.2205 75.8696 94.2205Z" fill="#2B0020"/>
<path d="M74.9057 68.8525C74.9057 74.6595 72.4647 76.4065 69.4547 76.4065C66.4437 76.4065 64.0027 74.6585 64.0027 68.8525C64.0027 63.0465 66.4437 58.3385 69.4547 58.3385C72.4647 58.3395 74.9057 63.0465 74.9057 68.8525Z" fill="#2B0020"/>
<path d="M72.7767 60.5315C71.8567 59.1625 70.7057 58.3395 69.4537 58.3395C66.6347 58.3395 64.3167 62.4655 64.0317 67.7565C65.8387 67.7265 67.6357 67.2645 69.1417 66.3605C70.7357 65.1655 72.3237 62.9505 72.7767 60.5315Z" fill="white"/>
<path d="M103.524 68.8525C103.524 74.6595 101.083 76.4065 98.0726 76.4065C95.0626 76.4065 92.6206 74.6585 92.6206 68.8525C92.6206 63.0465 95.0616 58.3385 98.0726 58.3385C101.084 58.3385 103.524 63.0465 103.524 68.8525Z" fill="#2B0020"/>
<path d="M101.396 60.5315C100.475 59.1625 99.3246 58.3395 98.0726 58.3395C95.2536 58.3395 92.9356 62.4655 92.6506 67.7565C94.4576 67.7265 96.2547 67.2645 97.7607 66.3605C99.3547 65.1655 100.943 62.9505 101.396 60.5315Z" fill="white"/>
<path d="M63.8437 56.6495C63.5087 56.6495 63.1727 56.5265 62.9107 56.2785C62.3667 55.7635 62.3427 54.9045 62.8577 54.3605C64.6157 52.5025 66.7457 51.5605 69.1877 51.5605C72.8107 51.5605 75.1157 54.0905 75.2127 54.1975C75.7127 54.7555 75.6647 55.6135 75.1057 56.1135C74.5487 56.6115 73.6957 56.5655 73.1947 56.0125C73.1587 55.9745 71.5567 54.2735 69.1877 54.2735C67.4967 54.2735 66.0717 54.9115 64.8287 56.2245C64.5627 56.5075 64.2027 56.6495 63.8437 56.6495Z" fill="#2B0020"/>
<path d="M91.8596 56.6495C91.5246 56.6495 91.1886 56.5265 90.9266 56.2785C90.3826 55.7635 90.3586 54.9045 90.8736 54.3605C92.6316 52.5025 94.7616 51.5605 97.2036 51.5605C100.826 51.5605 103.131 54.0905 103.228 54.1975C103.728 54.7555 103.68 55.6135 103.121 56.1135C102.564 56.6115 101.71 56.5655 101.21 56.0125C101.174 55.9745 99.5716 54.2735 97.2026 54.2735C95.5116 54.2735 94.0856 54.9115 92.8436 56.2245C92.5776 56.5075 92.2186 56.6495 91.8596 56.6495Z" fill="#2B0020"/>
</svg>
