<svg width="128" height="107" viewBox="0 0 128 107" fill="none" xmlns="http://www.w3.org/2000/svg">
<path d="M53.147 106.294C82.4993 106.294 106.294 82.4993 106.294 53.147C106.294 23.7947 82.4993 0 53.147 0C23.7947 0 0 23.7947 0 53.147C0 82.4993 23.7947 106.294 53.147 106.294Z" fill="#4AB6B8"/>
<path d="M35.445 22.298C34.202 21.381 32.802 20.732 31.324 20.732C26.259 20.732 26.4389 27.607 26.4389 27.607C26.4389 27.607 21.8169 20.371 17.5249 20.732C13.2329 21.094 11.7859 25.978 11.7859 25.978C11.7859 25.978 11.191 24.018 9.83195 22.345C8.36996 24.398 7.05096 26.559 5.88696 28.814C13.262 29.28 22.429 30.811 32.77 34.571C32.77 34.571 32.641 27.067 35.445 22.298Z" fill="#4B703C"/>
<path d="M54.866 30.051C54.866 30.051 56.983 27.84 59.784 25.405C60.175 22.084 60.126 18.794 58.459 18.54C55.022 18.018 52.67 24.712 52.67 24.712C52.67 24.712 51.946 17.657 48.328 17.476C47.229 17.421 46.08 18.404 45.012 19.796C50.176 22.776 54.866 30.051 54.866 30.051Z" fill="#4B703C"/>
<path d="M80.3879 78.515C79.8779 78.694 79.3499 78.874 78.8069 79.053C79.3499 78.873 79.8779 78.694 80.3879 78.515Z" fill="#61AA54"/>
<path d="M82.517 77.739C82.351 77.802 82.182 77.865 82.011 77.928C82.182 77.865 82.35 77.802 82.517 77.739Z" fill="#61AA54"/>
<path d="M76.0489 79.918C75.8449 79.979 75.6379 80.039 75.4309 80.099C75.6389 80.04 75.8449 79.979 76.0489 79.918Z" fill="#61AA54"/>
<path d="M75.1689 80.175C74.9449 80.239 74.7189 80.303 74.4919 80.366C74.7199 80.303 74.9459 80.24 75.1689 80.175Z" fill="#61AA54"/>
<path d="M81.8319 77.995C81.6499 78.062 81.4639 78.13 81.2759 78.198C81.4629 78.13 81.6489 78.063 81.8319 77.995Z" fill="#61AA54"/>
<path d="M83.1819 77.484C83.0269 77.544 82.8709 77.604 82.7119 77.665C82.8709 77.604 83.0279 77.544 83.1819 77.484Z" fill="#61AA54"/>
<path d="M87.991 75.451C87.897 75.495 87.8 75.54 87.699 75.586C87.799 75.539 87.896 75.495 87.991 75.451Z" fill="#61AA54"/>
<path d="M87.1591 75.83C87.0561 75.876 86.9491 75.924 86.8411 75.971C86.9501 75.923 87.0561 75.876 87.1591 75.83Z" fill="#61AA54"/>
<path d="M83.8369 77.228C83.6829 77.289 83.5259 77.351 83.3669 77.413C83.5269 77.351 83.6829 77.289 83.8369 77.228Z" fill="#61AA54"/>
<path d="M86.232 76.237C86.075 76.305 85.914 76.374 85.749 76.444C85.915 76.374 86.076 76.305 86.232 76.237Z" fill="#61AA54"/>
<path d="M43.082 82.874C43.678 82.959 44.272 83.033 44.865 83.1C44.296 83.035 43.726 82.964 43.153 82.883C43.13 82.88 43.106 82.877 43.082 82.874Z" fill="#61AA54"/>
<path d="M46.7969 83.291C56.2209 84.078 65.1289 82.765 72.3809 80.928C67.8949 82.064 62.7719 82.997 57.2889 83.359C53.9079 83.584 50.3899 83.591 46.7969 83.291Z" fill="#61AA54"/>
<path d="M125.033 57.729C120.963 52.302 113.093 53.567 113.093 53.567C106.224 51.749 100.61 43.165 81.276 40.251C77.962 39.752 76.107 36.032 75.974 32.683C75.929 31.544 75.848 30.307 75.715 29.059C75.346 29.058 74.978 28.913 74.711 28.618C74.672 28.577 73.203 27.025 71.039 27.025C69.487 27.025 68.178 27.611 67.037 28.817C66.77 29.1 66.411 29.241 66.051 29.241C65.716 29.241 65.381 29.118 65.119 28.87C64.575 28.355 64.551 27.496 65.066 26.952C66.724 25.199 68.734 24.311 71.039 24.311C72.774 24.311 74.187 24.926 75.173 25.545C74.394 21.872 72.932 18.879 70.218 19.104C67.351 19.342 63.09 22.53 59.784 25.405C56.983 27.84 54.866 30.051 54.866 30.051C54.866 30.051 50.176 22.777 45.013 19.796C43.103 18.694 41.13 18.174 39.304 18.833C37.622 19.44 36.373 20.72 35.445 22.298C32.641 27.067 32.771 34.572 32.771 34.572C22.43 30.812 13.262 29.281 5.88797 28.815C2.12697 36.106 0.000976562 44.378 0.000976562 53.147C0.000976562 60.194 1.37597 66.919 3.86697 73.073C8.42597 72.677 12.918 72.061 17.031 70.796C21.859 69.31 26.167 66.933 29.45 62.973C30.719 61.443 31.837 59.68 32.771 57.637C32.972 57.316 33.202 57.024 33.452 56.756C31.232 57.829 29.667 59.233 29.527 59.361C28.974 59.866 28.117 59.829 27.611 59.277C27.105 58.725 27.141 57.869 27.692 57.362C30.931 54.384 38.705 50.102 44.937 55.215C46.7 56.662 48.16 58.173 49.572 59.636C53.784 63.999 57.422 67.767 67.499 67.943C86.063 68.269 90.597 73.047 91.052 73.591C91.511 74.139 91.458 74.939 90.955 75.43C92.765 77.108 97.131 80.364 103.596 80.162C112.28 79.891 113.365 73.107 113.365 73.107C113.365 73.107 115.355 73.787 121.596 71.616C127.837 69.445 129.104 63.157 125.033 57.729ZM44.23 26.351C47.651 26.351 49.828 28.74 49.919 28.842C50.419 29.4 50.371 30.258 49.813 30.758C49.256 31.256 48.403 31.21 47.903 30.658C47.87 30.622 46.398 29.065 44.23 29.065C42.678 29.065 41.369 29.651 40.228 30.857C39.961 31.14 39.602 31.282 39.242 31.282C38.907 31.282 38.572 31.159 38.31 30.911C37.766 30.396 37.742 29.537 38.257 28.993C39.915 27.239 41.925 26.351 44.23 26.351ZM44.075 48.562C41.265 48.562 38.988 46.931 38.988 41.513C38.988 41.163 38.998 40.818 39.017 40.478C39.034 40.17 39.058 39.866 39.089 39.566C39.103 39.428 39.124 39.295 39.141 39.16C39.163 38.991 39.182 38.82 39.208 38.655C39.23 38.514 39.258 38.378 39.284 38.24C39.312 38.085 39.339 37.929 39.372 37.778C39.401 37.641 39.435 37.51 39.467 37.376C39.502 37.23 39.537 37.084 39.575 36.942C39.611 36.811 39.65 36.686 39.689 36.559C39.731 36.422 39.772 36.284 39.817 36.151C39.859 36.028 39.903 35.91 39.948 35.791C39.996 35.662 40.045 35.534 40.096 35.41C40.143 35.296 40.192 35.186 40.242 35.077C40.296 34.956 40.352 34.838 40.409 34.722C40.461 34.618 40.514 34.518 40.568 34.418C40.629 34.306 40.69 34.198 40.754 34.092C40.81 33.999 40.867 33.908 40.924 33.819C40.99 33.717 41.059 33.62 41.128 33.525C41.187 33.443 41.247 33.362 41.309 33.285C41.381 33.194 41.456 33.109 41.53 33.026C41.593 32.956 41.655 32.886 41.719 32.821C41.797 32.742 41.877 32.671 41.958 32.599C42.023 32.542 42.087 32.483 42.153 32.431C42.238 32.364 42.325 32.307 42.412 32.248C42.477 32.204 42.541 32.158 42.608 32.119C42.701 32.065 42.796 32.022 42.891 31.979C42.955 31.95 43.017 31.915 43.082 31.891C43.189 31.85 43.298 31.823 43.406 31.795C43.461 31.781 43.516 31.76 43.572 31.749C43.738 31.718 43.906 31.7 44.076 31.7C44.238 31.7 44.397 31.718 44.555 31.747C44.613 31.757 44.67 31.775 44.727 31.789C44.824 31.813 44.92 31.839 45.015 31.874C45.087 31.9 45.158 31.931 45.229 31.963C45.303 31.997 45.377 32.033 45.45 32.073C45.532 32.117 45.613 32.163 45.693 32.215C45.745 32.249 45.795 32.286 45.846 32.323C46.329 32.669 46.776 33.15 47.177 33.746V33.747C48.383 35.541 49.163 38.348 49.163 41.512C49.163 46.931 46.885 48.562 44.075 48.562ZM70.885 46.522C68.075 46.522 65.798 44.891 65.798 39.473C65.798 39.123 65.808 38.778 65.827 38.438C65.844 38.13 65.868 37.825 65.899 37.526C65.913 37.388 65.934 37.255 65.951 37.12C65.973 36.951 65.992 36.78 66.018 36.615C66.04 36.473 66.068 36.337 66.094 36.198C66.122 36.044 66.149 35.889 66.181 35.739C66.21 35.602 66.244 35.47 66.277 35.336C66.312 35.191 66.346 35.044 66.385 34.903C66.421 34.773 66.46 34.647 66.499 34.52C66.541 34.382 66.582 34.245 66.628 34.112C66.67 33.989 66.714 33.871 66.758 33.753C66.806 33.624 66.855 33.495 66.906 33.371C66.953 33.257 67.002 33.148 67.051 33.038C67.106 32.917 67.161 32.798 67.218 32.683C67.27 32.579 67.323 32.479 67.377 32.379C67.438 32.268 67.499 32.159 67.563 32.053C67.619 31.96 67.675 31.869 67.733 31.781C67.8 31.679 67.868 31.582 67.937 31.487C67.997 31.405 68.056 31.325 68.118 31.248C68.19 31.157 68.265 31.072 68.339 30.988C68.401 30.918 68.464 30.848 68.528 30.784C68.606 30.705 68.687 30.633 68.768 30.561C68.833 30.504 68.896 30.445 68.962 30.393C69.047 30.326 69.134 30.268 69.221 30.21C69.286 30.166 69.35 30.12 69.416 30.081C69.509 30.027 69.605 29.984 69.7 29.94C69.763 29.911 69.826 29.877 69.89 29.852C69.997 29.811 70.107 29.784 70.216 29.756C70.271 29.742 70.324 29.721 70.38 29.711C70.546 29.679 70.714 29.662 70.884 29.662C71.046 29.662 71.205 29.68 71.363 29.709C71.421 29.719 71.478 29.737 71.535 29.751C71.632 29.775 71.728 29.801 71.823 29.836C71.895 29.862 71.966 29.893 72.037 29.925C72.111 29.959 72.185 29.995 72.258 30.035C72.34 30.079 72.421 30.125 72.501 30.177C72.553 30.211 72.604 30.249 72.655 30.286C73.137 30.632 73.584 31.112 73.985 31.707L73.986 31.708C75.192 33.502 75.972 36.309 75.972 39.473C75.972 44.891 73.694 46.522 70.885 46.522ZM105.509 71.533C97.697 74.475 97.597 66.959 102.345 66.445C107.092 65.932 108.846 70.277 105.509 71.533ZM120.537 65.164C111.137 68.349 116.956 58.723 120.537 59.391C124.119 60.059 124.13 63.947 120.537 65.164Z" fill="#5C9A4D"/>
<path d="M20.3611 94.977L43.0821 82.874L30.4991 89.577L20.3611 94.977Z" fill="#61AA54"/>
<path d="M50.8809 64.774C50.9529 64.83 51.0279 64.879 51.0999 64.934C49.9679 63.939 48.9259 62.873 47.8789 61.789C48.8149 62.957 49.8189 63.943 50.8809 64.774Z" fill="#61AA54"/>
<path d="M46.7679 83.289C46.1959 83.241 45.6219 83.184 45.0459 83.121C45.6219 83.185 46.1959 83.241 46.7679 83.289Z" fill="#61AA54"/>
<path d="M29.449 62.973C26.166 66.932 21.859 69.31 17.03 70.796C19.132 78.58 24.105 84.807 30.498 89.577L43.081 82.874C43.105 82.877 43.129 82.88 43.153 82.883C36.486 78.556 31.142 70.872 29.449 62.973Z" fill="#EDB348"/>
<path d="M17.0309 70.796C12.9179 72.062 8.42594 72.677 3.86694 73.073C7.37794 81.748 13.1099 89.286 20.3609 94.977L30.4989 89.577C24.1059 84.807 19.1329 78.58 17.0309 70.796Z" fill="#EBA737"/>
<path d="M57.289 83.36C54.084 77.556 51.576 71.123 50.882 64.774C49.82 63.943 48.815 62.958 47.88 61.79C47.793 61.7 47.706 61.611 47.619 61.52C46.261 60.114 44.857 58.66 43.215 57.312C39.923 54.611 36.1899 55.433 33.452 56.756C33.202 57.024 32.972 57.316 32.771 57.637C31.837 59.68 30.719 61.443 29.45 62.973C31.143 70.872 36.486 78.555 43.154 82.883C43.726 82.964 44.297 83.035 44.866 83.1C44.926 83.107 44.986 83.114 45.047 83.121C45.623 83.185 46.197 83.242 46.769 83.289C46.778 83.29 46.788 83.29 46.798 83.291C50.39 83.591 53.908 83.584 57.289 83.36Z" fill="#EBA737"/>
<path d="M67.8001 70.665C67.6821 70.662 67.5701 70.658 67.4511 70.656C59.1171 70.51 54.6631 68.068 51.1011 64.934C51.0291 64.879 50.9541 64.83 50.8821 64.774C51.5771 71.124 54.0841 77.556 57.2891 83.36C62.7721 82.997 67.8951 82.065 72.3811 80.929C70.2711 77.871 68.7381 74.326 67.8001 70.665Z" fill="#EDB348"/>
<path d="M67.8 70.665C68.738 74.326 70.271 77.871 72.381 80.929C72.709 80.846 73.034 80.762 73.355 80.677C73.374 80.672 73.393 80.667 73.412 80.662C73.701 80.585 73.9871 80.508 74.2701 80.43C74.345 80.409 74.418 80.388 74.493 80.368C74.72 80.305 74.947 80.241 75.17 80.177C75.258 80.152 75.345 80.127 75.432 80.101C75.64 80.041 75.846 79.98 76.05 79.92C76.142 79.893 76.233 79.865 76.324 79.838C76.525 79.778 76.7241 79.717 76.9211 79.656C77.0071 79.63 77.092 79.603 77.177 79.577C77.383 79.513 77.586 79.449 77.787 79.385C77.859 79.362 77.9321 79.339 78.0041 79.316C78.2281 79.244 78.4491 79.172 78.6681 79.1C78.7141 79.085 78.761 79.07 78.807 79.054C79.35 78.874 79.8781 78.695 80.3881 78.516C80.3931 78.514 80.398 78.512 80.403 78.511C80.645 78.426 80.883 78.341 81.118 78.257C81.171 78.238 81.2231 78.219 81.2761 78.2C81.4641 78.132 81.6501 78.064 81.8321 77.997C81.8921 77.975 81.951 77.953 82.011 77.931C82.182 77.868 82.3511 77.804 82.5171 77.742C82.5831 77.717 82.647 77.693 82.712 77.668C82.871 77.607 83.028 77.547 83.182 77.487C83.244 77.463 83.306 77.439 83.367 77.415C83.526 77.353 83.683 77.291 83.837 77.23C83.888 77.21 83.9401 77.189 83.9911 77.169C84.1631 77.101 84.331 77.033 84.496 76.966C84.526 76.954 84.5561 76.942 84.5851 76.93C84.9831 76.768 85.3621 76.61 85.7201 76.458C85.7301 76.454 85.739 76.45 85.748 76.446C85.913 76.376 86.074 76.307 86.231 76.239C86.264 76.225 86.296 76.211 86.329 76.197C86.458 76.141 86.5851 76.086 86.7071 76.032C86.7521 76.012 86.7961 75.993 86.8401 75.973C86.9481 75.925 87.055 75.878 87.1581 75.832C87.2021 75.812 87.244 75.793 87.287 75.774C87.391 75.727 87.4921 75.681 87.5901 75.637C87.6261 75.621 87.6621 75.604 87.6971 75.588C87.7981 75.542 87.895 75.497 87.989 75.453C88.019 75.439 88.049 75.425 88.078 75.412C88.18 75.364 88.278 75.319 88.373 75.274C88.39 75.266 88.408 75.258 88.425 75.25C88.526 75.202 88.622 75.157 88.713 75.113C87.6 74.223 82.522 70.973 67.8 70.665Z" fill="#EBA737"/>
<path d="M40.0959 35.409C40.1429 35.295 40.1919 35.185 40.2419 35.076C40.1919 35.186 40.1429 35.295 40.0959 35.409Z" fill="#2B0020"/>
<path d="M40.4089 34.721C40.4609 34.617 40.5139 34.517 40.5679 34.417C40.5139 34.517 40.4609 34.618 40.4089 34.721Z" fill="#2B0020"/>
<path d="M45.449 32.073C45.531 32.117 45.612 32.163 45.692 32.215C45.612 32.164 45.531 32.118 45.449 32.073Z" fill="#2B0020"/>
<path d="M47.176 33.746C46.775 33.15 46.328 32.669 45.845 32.323C46.327 32.671 46.775 33.15 47.176 33.746Z" fill="#2B0020"/>
<path d="M49.163 41.512C49.163 38.347 48.383 35.541 47.177 33.747C46.754 36.004 45.273 38.071 43.785 39.186C42.38 40.029 40.702 40.461 39.016 40.489C39.016 40.485 39.017 40.482 39.017 40.478C38.999 40.818 38.988 41.163 38.988 41.513C38.988 46.932 41.266 48.562 44.075 48.562C46.884 48.562 49.163 46.931 49.163 41.512Z" fill="#2B0020"/>
<path d="M44.554 31.748C44.612 31.759 44.669 31.776 44.726 31.79C44.669 31.776 44.612 31.758 44.554 31.748Z" fill="#2B0020"/>
<path d="M42.8899 31.98C42.9539 31.951 43.0159 31.916 43.0809 31.892C43.0159 31.916 42.9539 31.95 42.8899 31.98Z" fill="#2B0020"/>
<path d="M43.405 31.796C43.46 31.782 43.515 31.761 43.571 31.75C43.515 31.761 43.461 31.782 43.405 31.796Z" fill="#2B0020"/>
<path d="M43.7849 39.186C45.2719 38.071 46.7539 36.004 47.1769 33.747V33.746C46.7759 33.15 46.3279 32.671 45.8459 32.323C45.7949 32.286 45.7449 32.249 45.6929 32.215C45.6129 32.163 45.5319 32.117 45.4499 32.073C45.3769 32.033 45.3029 31.997 45.2289 31.963C45.1579 31.931 45.0869 31.9 45.0149 31.874C44.9199 31.84 44.8239 31.813 44.7269 31.789C44.6699 31.775 44.6129 31.757 44.5549 31.747C44.3969 31.718 44.2379 31.7 44.0759 31.7C43.9059 31.7 43.7379 31.718 43.5719 31.749C43.5159 31.76 43.4619 31.781 43.4059 31.795C43.2969 31.823 43.1879 31.85 43.0819 31.891C43.0169 31.916 42.9549 31.95 42.8909 31.979C42.7959 32.023 42.7009 32.065 42.6079 32.119C42.5419 32.157 42.4769 32.204 42.4119 32.248C42.3249 32.306 42.2379 32.364 42.1529 32.431C42.0869 32.483 42.0229 32.542 41.9579 32.599C41.8779 32.67 41.7969 32.742 41.7189 32.821C41.6549 32.886 41.5919 32.956 41.5299 33.026C41.4549 33.11 41.3809 33.195 41.3089 33.285C41.2479 33.362 41.1879 33.443 41.1279 33.525C41.0589 33.62 40.9909 33.717 40.9239 33.819C40.8659 33.907 40.8089 33.998 40.7539 34.092C40.6899 34.198 40.6289 34.306 40.5679 34.418C40.5139 34.517 40.4609 34.618 40.4089 34.722C40.3519 34.837 40.2959 34.956 40.2419 35.077C40.1929 35.186 40.1429 35.296 40.0959 35.41C40.0449 35.534 39.9959 35.662 39.9479 35.791C39.9039 35.91 39.8589 36.028 39.8169 36.151C39.7719 36.284 39.7299 36.421 39.6889 36.559C39.6499 36.686 39.6109 36.812 39.5749 36.942C39.5359 37.084 39.5019 37.23 39.4669 37.376C39.4349 37.509 39.4009 37.641 39.3719 37.778C39.3399 37.929 39.3129 38.085 39.2839 38.24C39.2589 38.378 39.2309 38.514 39.2079 38.655C39.1819 38.821 39.1619 38.991 39.1409 39.16C39.1239 39.296 39.1029 39.429 39.0889 39.566C39.0579 39.865 39.0339 40.169 39.0169 40.478C39.0169 40.482 39.0159 40.486 39.0159 40.489C40.7019 40.461 42.3789 40.03 43.7849 39.186Z" fill="white"/>
<path d="M38.2569 28.992C37.7419 29.536 37.7659 30.395 38.3099 30.91C38.5719 31.158 38.9079 31.281 39.2419 31.281C39.6019 31.281 39.9609 31.139 40.2279 30.856C41.3689 29.65 42.6779 29.064 44.2299 29.064C46.3979 29.064 47.8689 30.621 47.9029 30.657C48.4029 31.209 49.2559 31.255 49.8129 30.757C50.3709 30.257 50.4189 29.399 49.9189 28.841C49.8279 28.739 47.6509 26.35 44.2299 26.35C41.9249 26.351 39.9149 27.239 38.2569 28.992Z" fill="#4B703C"/>
<path d="M68.3389 30.987C68.4009 30.917 68.4639 30.847 68.5279 30.783C68.4639 30.847 68.4019 30.917 68.3389 30.987Z" fill="#2B0020"/>
<path d="M70.2161 29.756C70.2711 29.742 70.3241 29.721 70.3801 29.711C70.3251 29.721 70.2711 29.742 70.2161 29.756Z" fill="#2B0020"/>
<path d="M68.7671 30.56C68.8311 30.503 68.8951 30.444 68.9611 30.392C68.8961 30.444 68.8321 30.503 68.7671 30.56Z" fill="#2B0020"/>
<path d="M73.985 31.706C73.585 31.111 73.137 30.63 72.655 30.285C73.136 30.632 73.584 31.111 73.985 31.706Z" fill="#2B0020"/>
<path d="M70.5939 37.147C69.1889 37.99 67.5109 38.422 65.8249 38.45C65.8249 38.446 65.8259 38.442 65.8259 38.439C65.8079 38.779 65.7969 39.124 65.7969 39.474C65.7969 44.893 68.0749 46.523 70.8839 46.523C73.6929 46.523 75.9709 44.892 75.9709 39.474C75.9709 36.309 75.1909 33.503 73.9849 31.709C73.5619 33.964 72.0809 36.032 70.5939 37.147Z" fill="#2B0020"/>
<path d="M71.363 29.708C71.421 29.719 71.478 29.736 71.535 29.75C71.478 29.737 71.421 29.719 71.363 29.708Z" fill="#2B0020"/>
<path d="M69.7 29.94C69.763 29.911 69.826 29.876 69.89 29.852C69.826 29.877 69.764 29.911 69.7 29.94Z" fill="#2B0020"/>
<path d="M66.0181 36.615C66.0401 36.473 66.0681 36.337 66.0941 36.198C66.0681 36.336 66.0401 36.473 66.0181 36.615Z" fill="#2B0020"/>
<path d="M65.8979 37.526C65.9119 37.388 65.933 37.255 65.95 37.12C65.933 37.256 65.9129 37.389 65.8979 37.526Z" fill="#2B0020"/>
<path d="M67.218 32.682C67.27 32.578 67.323 32.478 67.377 32.378C67.323 32.477 67.27 32.578 67.218 32.682Z" fill="#2B0020"/>
<path d="M66.627 34.111C66.669 33.989 66.713 33.87 66.757 33.752C66.713 33.871 66.669 33.989 66.627 34.111Z" fill="#2B0020"/>
<path d="M66.906 33.37C66.953 33.257 67.002 33.147 67.051 33.037C67.001 33.146 66.953 33.256 66.906 33.37Z" fill="#2B0020"/>
<path d="M70.5939 37.147C72.0809 36.032 73.5629 33.965 73.9859 31.708L73.9849 31.707C73.5839 31.111 73.1359 30.633 72.6549 30.285C72.6039 30.248 72.5529 30.21 72.5009 30.176C72.4209 30.124 72.3399 30.078 72.2579 30.034C72.1849 29.994 72.1109 29.958 72.0369 29.924C71.9659 29.892 71.8949 29.862 71.8229 29.835C71.7279 29.8 71.6319 29.774 71.5349 29.75C71.4779 29.736 71.4209 29.718 71.3629 29.708C71.2049 29.679 71.0459 29.661 70.8839 29.661C70.7139 29.661 70.5459 29.679 70.3799 29.71C70.3249 29.72 70.2709 29.741 70.2159 29.755C70.1059 29.783 69.9969 29.81 69.8899 29.851C69.8259 29.876 69.7639 29.91 69.6999 29.939C69.6049 29.983 69.5089 30.026 69.4159 30.08C69.3499 30.118 69.2859 30.165 69.2209 30.209C69.1339 30.267 69.0469 30.325 68.9619 30.392C68.8959 30.444 68.8319 30.503 68.7679 30.56C68.6869 30.632 68.6069 30.703 68.5279 30.783C68.4639 30.848 68.4019 30.918 68.3389 30.987C68.2639 31.071 68.1899 31.156 68.1179 31.247C68.0569 31.324 67.9969 31.405 67.9369 31.486C67.8679 31.581 67.7999 31.679 67.7329 31.78C67.6749 31.868 67.6179 31.959 67.5629 32.052C67.4999 32.158 67.4379 32.266 67.3769 32.378C67.3229 32.477 67.2699 32.578 67.2179 32.682C67.1609 32.798 67.1049 32.916 67.0509 33.037C67.0019 33.146 66.9529 33.256 66.9059 33.37C66.8549 33.495 66.8059 33.623 66.7579 33.752C66.7139 33.871 66.6689 33.989 66.6279 34.111C66.5829 34.244 66.5409 34.382 66.4989 34.519C66.4599 34.646 66.4209 34.771 66.3849 34.902C66.3459 35.044 66.3119 35.19 66.2769 35.335C66.2449 35.469 66.2109 35.601 66.1809 35.738C66.1489 35.888 66.1219 36.043 66.0939 36.197C66.0689 36.336 66.0409 36.472 66.0179 36.614C65.9919 36.78 65.9719 36.95 65.9509 37.119C65.9339 37.255 65.9129 37.388 65.8989 37.525C65.8679 37.824 65.8439 38.128 65.8269 38.437C65.8269 38.441 65.8259 38.445 65.8259 38.448C67.5109 38.422 69.1879 37.99 70.5939 37.147Z" fill="white"/>
<path d="M65.066 26.952C64.551 27.496 64.575 28.355 65.119 28.87C65.381 29.118 65.717 29.241 66.051 29.241C66.411 29.241 66.77 29.099 67.037 28.817C68.178 27.611 69.487 27.025 71.039 27.025C73.203 27.025 74.672 28.576 74.711 28.618C74.978 28.913 75.345 29.059 75.715 29.059C76.038 29.06 76.362 28.95 76.622 28.718C77.18 28.218 77.228 27.361 76.729 26.802C76.684 26.752 76.131 26.146 75.173 25.545C74.188 24.926 72.775 24.311 71.039 24.311C68.734 24.311 66.724 25.2 65.066 26.952Z" fill="#4B703C"/>
<path d="M102.344 66.446C97.5969 66.96 97.6959 74.476 105.508 71.534C108.846 70.277 107.092 65.932 102.344 66.446Z" fill="#2B0020"/>
<path d="M120.537 59.391C116.956 58.723 111.137 68.349 120.537 65.164C124.13 63.947 124.119 60.059 120.537 59.391Z" fill="#2B0020"/>
<path d="M91.052 73.59C90.596 73.047 86.063 68.268 67.499 67.942C57.421 67.765 53.784 63.998 49.572 59.635C48.16 58.173 46.701 56.661 44.937 55.214C38.705 50.101 30.932 54.383 27.692 57.361C27.141 57.868 27.105 58.724 27.611 59.276C28.117 59.828 28.974 59.865 29.527 59.36C29.667 59.232 31.233 57.829 33.452 56.755C36.189 55.431 39.923 54.61 43.215 57.311C44.857 58.658 46.261 60.113 47.619 61.519C47.706 61.609 47.793 61.699 47.88 61.789C48.927 62.873 49.97 63.938 51.101 64.934C54.663 68.068 59.117 70.51 67.451 70.656C67.57 70.658 67.682 70.662 67.8 70.665C82.522 70.973 87.6 74.223 88.715 75.11C88.889 75.248 88.97 75.331 88.972 75.334C89.24 75.654 89.625 75.819 90.012 75.819C90.319 75.819 90.629 75.715 90.883 75.502C90.91 75.48 90.93 75.453 90.954 75.429C91.458 74.938 91.51 74.138 91.052 73.59Z" fill="#4B703C"/>
</svg>
