<svg width="129" height="118" viewBox="0 0 129 118" fill="none" xmlns="http://www.w3.org/2000/svg">
<path d="M30.7225 9.86568C30.7225 9.86568 24.0945 7.16368 21.7425 9.86568C19.3905 12.5677 25.6025 15.0257 25.6025 15.0257C25.6025 15.0257 13.9635 14.9197 12.3345 17.9947C10.7065 21.0707 18.1235 21.1437 18.1235 21.1437C18.1235 21.1437 8.53554 23.0607 6.90754 26.6787C5.27954 30.2967 11.2495 29.5737 11.2495 29.5737C11.2495 29.5737 -0.147459 34.0967 0.0335412 39.5237C0.214541 44.9507 6.18454 40.4277 6.18454 40.4277C6.18454 40.4277 -0.513458 45.7647 0.0315423 49.3377C0.576542 52.9107 3.37954 51.8257 3.37954 51.8257C3.37954 51.8257 -1.41346 59.0617 1.66154 63.5847C4.73654 68.1077 17.4005 62.2497 17.4005 62.2497C17.4005 62.2497 62.3155 15.6657 30.7225 9.86568Z" fill="#2B0020"/>
<path d="M54.2706 11.2617C25.9656 12.4447 3.37964 35.7617 3.37964 64.3577C3.37964 93.7097 27.1746 117.505 56.5266 117.505C63.9006 117.505 70.9236 116.002 77.3066 113.288C49.2826 89.9547 42.3426 46.0667 54.2706 11.2617Z" fill="#9F3423"/>
<path d="M109.673 64.3577C109.673 35.0057 85.8785 11.2107 56.5265 11.2107C55.7705 11.2107 55.0185 11.2307 54.2705 11.2617C42.3425 46.0667 49.2825 89.9547 77.3075 113.288C96.3325 105.197 109.673 86.3357 109.673 64.3577Z" fill="#E39635"/>
<path d="M122.607 83.9227C122.607 83.9227 131.025 78.1557 127.02 59.9067C126.789 58.8527 125.34 58.7017 124.906 59.6897C123.408 63.0957 117.028 72.1527 108.93 73.9877C95.7146 76.9817 103.205 98.3117 122.607 83.9227Z" fill="#F6DB99"/>
<path d="M38.0746 15.6217C41.3796 11.0777 58.0936 8.37368 69.1376 11.8247C80.1826 15.2757 69.1376 50.4807 95.7136 59.1097C122.29 67.7387 124.016 80.5087 120.565 86.0317C117.114 91.5537 65.6856 111.055 45.6676 78.6107C25.6496 46.1667 35.3136 19.4177 38.0746 15.6217Z" fill="#AA4529"/>
<path d="M53.7635 88.8617C53.7635 88.8617 34.4965 91.1267 30.4265 77.1517C26.3565 63.1767 38.5675 49.3367 38.5675 49.3367C38.5675 49.3367 68.8235 84.2907 53.7635 88.8617Z" fill="#AA4529"/>
<path d="M97.1915 94.9327C97.1915 94.9327 114.352 94.3147 120.565 86.0317C126.778 77.7477 112.972 55.2037 105.723 53.0157C98.4755 50.8267 75.5445 93.1347 97.1915 94.9327Z" fill="#F98C87"/>
<path d="M73.0426 94.1567C73.0426 94.1567 83.9186 89.7237 83.8656 68.2187C83.8626 66.9767 82.2706 66.4536 81.5406 67.4586C79.0246 70.9246 69.6386 79.5557 60.0816 79.6437C44.4866 79.7867 47.7076 105.608 73.0426 94.1567Z" fill="#F6DB99"/>
<path d="M67.3934 13.5347C68.0764 10.8687 71.3784 1.54766 84.1854 1.30066C84.6334 1.29166 84.9814 1.69166 84.9174 2.13566C84.4294 5.52566 81.6934 17.8757 67.9214 14.4217C67.5314 14.3247 67.2934 13.9247 67.3934 13.5347Z" fill="#AA4529"/>
<path d="M70.6836 11.3067C71.1346 9.67267 72.7955 6.17768 78.8445 4.92668C79.3655 4.81868 79.8506 5.24168 79.8026 5.77168C79.5976 8.03468 78.3665 13.1967 71.3545 12.3007C70.8765 12.2397 70.5556 11.7717 70.6836 11.3067Z" fill="#F98C87"/>
<path d="M48.0225 11.8627C48.0225 11.8627 56.1945 9.75366 59.4735 21.1437C59.4735 21.1437 66.6825 18.9287 66.5495 15.0257C66.4165 11.1227 62.5805 16.1297 62.5805 16.1297C62.5805 16.1297 67.2405 7.66066 64.6515 4.91066C62.0625 2.16066 60.1645 7.33766 60.1645 7.33766C60.1645 7.33766 58.0935 -0.946341 54.6425 0.0896593C51.1905 1.12566 53.2615 6.11867 53.2615 6.11867C53.2615 6.11867 47.2215 0.268658 44.4605 1.30066C41.6995 2.33266 46.5315 6.11867 46.5315 6.11867C46.5315 6.11867 37.5265 2.13867 35.2985 6.11867C33.0705 10.0987 39.8015 13.6127 39.8015 13.6127C39.8015 13.6127 43.9925 12.0737 48.0225 11.8627Z" fill="#2B0020"/>
<path d="M43.1346 14.7437C42.4516 12.0777 39.1496 2.75667 26.3426 2.50967C25.8946 2.50067 25.5466 2.90068 25.6106 3.34468C26.0976 6.73468 28.8346 19.0837 42.6066 15.6307C42.9966 15.5327 43.2346 15.1327 43.1346 14.7437Z" fill="#AA4529"/>
<path d="M39.8447 12.5147C39.3937 10.8807 37.7327 7.38569 31.6837 6.13469C31.1627 6.02669 30.6777 6.44969 30.7257 6.97969C30.9307 9.24269 32.1617 14.4047 39.1737 13.5077C39.6517 13.4477 39.9727 12.9797 39.8447 12.5147Z" fill="#F98C87"/>
<path d="M98.6286 85.4736C102.057 85.6367 105.217 71.6757 102.285 69.1677C99.3516 66.6587 87.2306 84.9306 98.6286 85.4736Z" fill="#F87671"/>
<path d="M116.538 82.0077C119.488 79.7897 113.309 67.2697 110.958 68.2657C108.606 69.2607 108.398 88.1287 116.538 82.0077Z" fill="#F87671"/>
<path d="M52.3825 46.9097C52.3825 43.7447 51.6025 40.9387 50.3965 39.1447C49.9735 41.4017 48.4915 43.4687 47.0045 44.5837C45.5995 45.4267 43.9215 45.8587 42.2355 45.8867C42.2355 45.8827 42.2365 45.8797 42.2365 45.8757C42.2175 46.2157 42.2075 46.5607 42.2075 46.9107C42.2075 52.3287 44.4855 53.9597 47.2945 53.9597C50.1035 53.9597 52.3825 52.3277 52.3825 46.9097Z" fill="#2B0020"/>
<path d="M47.0046 44.5837C48.4916 43.4687 49.9736 41.4017 50.3966 39.1447C49.9956 38.5487 49.5476 38.0697 49.0656 37.7217C49.0146 37.6847 48.9646 37.6477 48.9126 37.6137C48.8326 37.5617 48.7516 37.5157 48.6696 37.4717C48.5966 37.4317 48.5226 37.3957 48.4486 37.3617C48.3776 37.3297 48.3066 37.2987 48.2346 37.2727C48.1396 37.2387 48.0436 37.2117 47.9466 37.1877C47.8896 37.1737 47.8326 37.1557 47.7746 37.1447C47.6166 37.1157 47.4576 37.0977 47.2956 37.0977C47.1256 37.0977 46.9576 37.1157 46.7916 37.1467C46.7356 37.1577 46.6816 37.1787 46.6256 37.1927C46.5166 37.2207 46.4076 37.2477 46.3006 37.2877C46.2366 37.3127 46.1736 37.3467 46.1096 37.3767C46.0146 37.4207 45.9196 37.4627 45.8266 37.5167C45.7606 37.5547 45.6956 37.6017 45.6306 37.6457C45.5436 37.7037 45.4566 37.7617 45.3716 37.8277C45.3056 37.8797 45.2416 37.9387 45.1766 37.9957C45.0966 38.0667 45.0156 38.1387 44.9376 38.2177C44.8736 38.2827 44.8116 38.3527 44.7486 38.4227C44.6736 38.5067 44.5996 38.5917 44.5276 38.6817C44.4666 38.7587 44.4066 38.8397 44.3466 38.9217C44.2776 39.0167 44.2096 39.1137 44.1426 39.2157C44.0846 39.3037 44.0276 39.3947 43.9726 39.4877C43.9086 39.5937 43.8476 39.7017 43.7866 39.8137C43.7326 39.9127 43.6796 40.0137 43.6276 40.1177C43.5706 40.2327 43.5146 40.3517 43.4606 40.4727C43.4116 40.5827 43.3616 40.6927 43.3146 40.8057C43.2636 40.9297 43.2146 41.0577 43.1666 41.1867C43.1226 41.3057 43.0776 41.4237 43.0356 41.5467C42.9906 41.6797 42.9486 41.8167 42.9066 41.9547C42.8676 42.0817 42.8286 42.2077 42.7926 42.3377C42.7536 42.4797 42.7196 42.6257 42.6846 42.7717C42.6526 42.9047 42.6186 43.0367 42.5896 43.1737C42.5576 43.3247 42.5306 43.4807 42.5016 43.6357C42.4766 43.7737 42.4486 43.9097 42.4266 44.0507C42.4006 44.2167 42.3806 44.3867 42.3596 44.5557C42.3426 44.6917 42.3216 44.8247 42.3066 44.9617C42.2756 45.2607 42.2516 45.5647 42.2346 45.8737C42.2346 45.8777 42.2336 45.8817 42.2336 45.8847C43.9216 45.8587 45.5996 45.4267 47.0046 44.5837Z" fill="white"/>
<path d="M41.4766 34.3897C40.9616 34.9337 40.9856 35.7927 41.5296 36.3077C41.7916 36.5557 42.1276 36.6787 42.4616 36.6787C42.8216 36.6787 43.1806 36.5367 43.4476 36.2537C44.5886 35.0477 45.8976 34.4617 47.4496 34.4617C49.6176 34.4617 51.0886 36.0187 51.1226 36.0547C51.6226 36.6067 52.4756 36.6527 53.0326 36.1547C53.5906 35.6547 53.6386 34.7967 53.1386 34.2387C53.0476 34.1367 50.8706 31.7477 47.4496 31.7477C45.1446 31.7487 43.1346 32.6367 41.4766 34.3897Z" fill="#9F3423"/>
<path d="M73.8136 42.5447C72.4086 43.3877 70.7306 43.8197 69.0446 43.8477C69.0446 43.8437 69.0456 43.8397 69.0456 43.8357C69.0276 44.1757 69.0166 44.5207 69.0166 44.8707C69.0166 50.2897 71.2946 51.9197 74.1036 51.9197C76.9126 51.9197 79.1906 50.2887 79.1906 44.8707C79.1906 41.7057 78.4106 38.8997 77.2046 37.1057C76.7826 39.3617 75.3006 41.4287 73.8136 42.5447Z" fill="#2B0020"/>
<path d="M73.8136 42.5447C75.3006 41.4297 76.7826 39.3627 77.2056 37.1057L77.2046 37.1047C76.8046 36.5097 76.3566 36.0307 75.8746 35.6837C75.8236 35.6467 75.7726 35.6087 75.7206 35.5747C75.6406 35.5227 75.5596 35.4767 75.4776 35.4327C75.4046 35.3927 75.3306 35.3567 75.2566 35.3227C75.1856 35.2907 75.1146 35.2607 75.0426 35.2337C74.9476 35.1987 74.8516 35.1727 74.7546 35.1487C74.6976 35.1347 74.6406 35.1167 74.5826 35.1067C74.4246 35.0777 74.2656 35.0597 74.1036 35.0597C73.9336 35.0597 73.7656 35.0777 73.5996 35.1087C73.5446 35.1187 73.4906 35.1397 73.4356 35.1537C73.3256 35.1817 73.2166 35.2087 73.1096 35.2497C73.0456 35.2747 72.9826 35.3087 72.9196 35.3377C72.8246 35.3817 72.7286 35.4247 72.6356 35.4787C72.5696 35.5167 72.5056 35.5637 72.4406 35.6077C72.3536 35.6657 72.2666 35.7237 72.1816 35.7907C72.1156 35.8427 72.0516 35.9017 71.9876 35.9587C71.9066 36.0307 71.8266 36.1017 71.7486 36.1817C71.6846 36.2467 71.6226 36.3167 71.5596 36.3857C71.4846 36.4697 71.4106 36.5547 71.3386 36.6457C71.2776 36.7227 71.2176 36.8037 71.1576 36.8847C71.0886 36.9797 71.0206 37.0777 70.9536 37.1787C70.8956 37.2667 70.8396 37.3577 70.7836 37.4507C70.7206 37.5567 70.6586 37.6647 70.5976 37.7767C70.5436 37.8757 70.4906 37.9767 70.4386 38.0807C70.3806 38.1967 70.3256 38.3147 70.2716 38.4357C70.2226 38.5447 70.1736 38.6547 70.1266 38.7687C70.0756 38.8927 70.0266 39.0217 69.9786 39.1507C69.9346 39.2697 69.8896 39.3877 69.8486 39.5097C69.8036 39.6427 69.7616 39.7807 69.7196 39.9177C69.6806 40.0447 69.6416 40.1697 69.6056 40.3007C69.5666 40.4417 69.5326 40.5887 69.4976 40.7337C69.4656 40.8677 69.4316 40.9997 69.4016 41.1367C69.3696 41.2867 69.3426 41.4417 69.3146 41.5957C69.2896 41.7347 69.2616 41.8707 69.2386 42.0127C69.2126 42.1777 69.1926 42.3487 69.1716 42.5177C69.1546 42.6537 69.1336 42.7867 69.1196 42.9237C69.0886 43.2227 69.0646 43.5267 69.0476 43.8357C69.0476 43.8397 69.0466 43.8437 69.0466 43.8477C70.7316 43.8187 72.4086 43.3877 73.8136 42.5447Z" fill="white"/>
<path d="M68.2857 32.3497C67.7707 32.8937 67.7947 33.7527 68.3387 34.2677C68.6007 34.5157 68.9367 34.6387 69.2707 34.6387C69.6307 34.6387 69.9897 34.4967 70.2567 34.2147C71.3977 33.0087 72.7067 32.4227 74.2587 32.4227C76.4227 32.4227 77.8917 33.9737 77.9307 34.0157C78.1977 34.3107 78.5647 34.4567 78.9337 34.4567C79.2567 34.4577 79.5807 34.3477 79.8407 34.1157C80.3987 33.6157 80.4467 32.7587 79.9477 32.1997C79.9027 32.1497 79.3497 31.5437 78.3917 30.9427C77.4067 30.3237 75.9937 29.7087 74.2587 29.7087C71.9537 29.7087 69.9437 30.5977 68.2857 32.3497Z" fill="#9F3423"/>
</svg>
