<svg width="107" height="122" viewBox="0 0 107 122" fill="none" xmlns="http://www.w3.org/2000/svg">
<path d="M53.147 121.193C82.4993 121.193 106.294 97.3981 106.294 68.0458C106.294 38.6936 82.4993 14.8988 53.147 14.8988C23.7947 14.8988 0 38.6936 0 68.0458C0 97.3981 23.7947 121.193 53.147 121.193Z" fill="#4AB6B8"/>
<path d="M63.9411 94.3978C58.3011 88.6288 45.2981 87.8618 40.1031 92.9918C34.0741 98.8598 28.9391 105.591 24.6431 112.909C32.0231 117.607 40.6651 120.548 50.0181 121.1C60.9951 121.747 71.3901 119.015 80.1901 113.803C75.6651 106.825 70.0201 100.519 63.9411 94.3978Z" fill="#E38027"/>
<path d="M60.9939 105.947C55.2899 101.261 50.4219 101.518 44.7809 104.991C40.5499 107.465 35.9039 113.282 33.2849 117.352C38.4869 119.448 44.1099 120.752 50.0179 121.101C57.2859 121.53 64.2949 120.469 70.7579 118.196C68.6289 115.013 64.2429 108.401 60.9939 105.947Z" fill="#F6CAA6"/>
<path opacity="0.2" d="M71.6769 102.662C69.2229 99.8428 66.6259 97.1008 63.9409 94.3978C58.3009 88.6288 45.298 87.8618 40.103 92.9918C36.31 96.6838 32.8719 100.718 29.7729 105.025C52.2709 115.819 72.8519 104.011 71.6769 102.662Z" fill="black"/>
<path d="M77.9871 23.0518C77.9871 23.0518 96.1801 16.8618 94.3331 9.94685C92.4861 3.03185 80.0731 -2.38716 75.3671 1.07484C70.6611 4.53684 71.5641 18.7499 71.5641 18.7499L77.9871 23.0518Z" fill="#2B0020"/>
<path d="M77.963 20.4408C77.963 20.4408 87.597 15.3748 87.747 12.2138C87.897 9.05284 83.231 5.28983 80.672 5.28983C78.113 5.28983 74.5 17.2448 74.5 17.2448L77.963 20.4408Z" fill="#F6CAA6"/>
<path d="M29.494 23.0518C29.494 23.0518 11.301 16.8618 13.148 9.94685C14.995 3.03185 27.408 -2.38716 32.114 1.07484C36.82 4.53684 35.917 18.7499 35.917 18.7499L29.494 23.0518Z" fill="#2B0020"/>
<path d="M29.518 20.4408C29.518 20.4408 19.885 15.3748 19.734 12.2138C19.583 9.05284 24.25 5.28983 26.809 5.28983C29.368 5.28983 32.98 17.2448 32.98 17.2448L29.518 20.4408Z" fill="#F6CAA6"/>
<path d="M103.408 59.6928C103.408 88.0958 80.9091 92.7338 53.1561 92.7338C25.4021 92.7338 2.90405 88.0948 2.90405 59.6928C2.90405 31.2908 33.4671 8.26483 53.1561 8.26483C72.2581 8.26483 103.408 31.2898 103.408 59.6928Z" fill="#E38027"/>
<path d="M97.531 64.6868C97.531 90.7078 77.664 94.9578 53.156 94.9578C28.649 94.9578 8.78101 90.7078 8.78101 64.6868C8.78101 38.6658 35.769 17.5708 53.156 17.5708C70.024 17.5708 97.531 38.6658 97.531 64.6868Z" fill="#F6CAA6"/>
<path opacity="0.32" d="M20.2421 57.3418C14.1851 59.2688 8.3871 63.0019 3.6311 67.8749C7.6911 89.0159 28.3171 92.7338 53.1561 92.7338C77.9521 92.7338 98.5501 89.0288 102.66 67.9848C81.0041 49.6368 46.6521 49.3248 20.2421 57.3418Z" fill="black"/>
<path d="M94.592 85.0758C94.592 98.2288 76.041 100.438 53.156 100.438C30.272 100.438 11.72 98.2288 11.72 85.0758C11.72 71.9228 30.272 61.2598 53.156 61.2598C76.041 61.2598 94.592 71.9228 94.592 85.0758Z" fill="#F6CAA6"/>
<path d="M70.777 63.5158C70.777 63.5158 64.911 10.1258 58.838 8.26483C52.765 6.40383 48.255 7.17482 44.926 9.92382C41.597 12.6728 35.916 61.7528 36.504 64.5908C37.091 67.4288 66.064 71.0618 70.777 63.5158Z" fill="#E36127"/>
<path d="M70.7772 69.0968C72.8472 66.7588 74.5112 63.0238 66.6742 61.2598C58.8372 59.4968 39.7712 60.5778 36.4722 63.2698C33.1732 65.9618 36.2292 70.7988 38.4622 70.8598C43.8992 71.0068 44.7312 67.7248 47.2782 70.8598C49.8252 73.9948 51.6862 76.1988 54.6252 75.8078C57.5642 75.4158 59.8172 69.8809 62.5602 69.6849C65.3032 69.4889 69.3612 70.6958 70.7772 69.0968Z" fill="#2B0020"/>
<path d="M101.426 72.5358L90.5891 61.0328C90.0731 60.4848 90.5291 59.5928 91.2751 59.6898L103.383 61.2598C103.383 61.2598 103.066 68.8288 101.426 72.5358Z" fill="#2B0020"/>
<path d="M100.781 45.3848H92.003C91.378 45.3848 90.9941 44.7008 91.3191 44.1668L96.217 36.1458C96.217 36.1458 99.619 41.7738 100.781 45.3848Z" fill="#2B0020"/>
<path d="M89.0521 26.8888L81.4761 31.6118C80.8661 31.9918 80.1021 31.4378 80.2751 30.7398L82.6991 20.9498C82.6991 20.9498 86.2251 23.6668 89.0521 26.8888Z" fill="#2B0020"/>
<path d="M4.86105 72.5358L15.6981 61.0328C16.2141 60.4848 15.7581 59.5928 15.0121 59.6898L2.90405 61.2598C2.90405 61.2598 3.22105 68.8288 4.86105 72.5358Z" fill="#2B0020"/>
<path d="M5.5061 45.3848H14.2841C14.9091 45.3848 15.2931 44.7008 14.9681 44.1668L10.0701 36.1458C10.0701 36.1458 6.6681 41.7738 5.5061 45.3848Z" fill="#2B0020"/>
<path d="M17.2351 26.8888L24.8111 31.6118C25.4211 31.9918 26.1851 31.4378 26.0121 30.7398L23.5881 20.9498C23.5881 20.9498 20.0611 23.6668 17.2351 26.8888Z" fill="#2B0020"/>
<path d="M33.8478 52.7648C33.8478 49.3378 33.0028 46.2978 31.6968 44.3548C31.2388 46.7988 29.6338 49.0378 28.0238 50.2458C26.5018 51.1588 24.6858 51.6268 22.8598 51.6568C22.8598 51.6528 22.8608 51.6488 22.8608 51.6448C22.8408 52.0128 22.8298 52.3868 22.8298 52.7648C22.8298 58.6328 25.2958 60.3988 28.3388 60.3988C31.3818 60.3988 33.8478 58.6328 33.8478 52.7648Z" fill="#2B0020"/>
<path d="M28.0239 50.2468C29.6339 49.0388 31.2389 46.8008 31.6969 44.3558L31.6959 44.3548C31.2619 43.7098 30.7759 43.1908 30.2549 42.8148C30.1999 42.7748 30.1449 42.7338 30.0889 42.6978C30.0019 42.6418 29.9139 42.5918 29.8259 42.5438C29.7469 42.5008 29.6669 42.4618 29.5859 42.4248C29.5089 42.3898 29.4319 42.3568 29.3539 42.3288C29.2509 42.2918 29.1469 42.2638 29.0429 42.2368C28.9809 42.2208 28.9189 42.2018 28.8559 42.1908C28.6849 42.1598 28.5129 42.1398 28.3379 42.1398C28.1539 42.1398 27.9719 42.1588 27.7919 42.1928C27.7309 42.2048 27.6729 42.2268 27.6129 42.2418C27.4949 42.2718 27.3769 42.3008 27.2619 42.3448C27.1919 42.3718 27.1239 42.4088 27.0549 42.4408C26.9519 42.4878 26.8489 42.5348 26.7479 42.5928C26.6759 42.6348 26.6069 42.6848 26.5359 42.7328C26.4419 42.7958 26.3479 42.8578 26.2559 42.9308C26.1839 42.9878 26.1149 43.0508 26.0449 43.1128C25.9579 43.1898 25.8709 43.2678 25.7859 43.3528C25.7169 43.4228 25.6489 43.4988 25.5809 43.5748C25.4999 43.6658 25.4199 43.7578 25.3409 43.8558C25.2749 43.9388 25.2099 44.0268 25.1449 44.1148C25.0699 44.2178 24.9969 44.3228 24.9239 44.4328C24.8609 44.5288 24.7999 44.6268 24.7389 44.7278C24.6699 44.8428 24.6029 44.9598 24.5379 45.0808C24.4799 45.1878 24.4219 45.2978 24.3659 45.4098C24.3039 45.5348 24.2439 45.6628 24.1849 45.7938C24.1309 45.9128 24.0779 46.0318 24.0269 46.1548C23.9709 46.2898 23.9189 46.4278 23.8669 46.5678C23.8189 46.6968 23.7709 46.8248 23.7259 46.9578C23.6769 47.1018 23.6319 47.2508 23.5869 47.3998C23.5449 47.5368 23.5029 47.6728 23.4639 47.8148C23.4219 47.9688 23.3849 48.1268 23.3469 48.2848C23.3119 48.4288 23.2759 48.5718 23.2439 48.7198C23.2089 48.8838 23.1799 49.0518 23.1489 49.2198C23.1209 49.3698 23.0909 49.5168 23.0669 49.6698C23.0389 49.8488 23.0179 50.0338 22.9939 50.2168C22.9749 50.3638 22.9529 50.5078 22.9369 50.6568C22.9029 50.9808 22.8769 51.3098 22.8589 51.6438C22.8589 51.6478 22.8579 51.6518 22.8579 51.6558C24.6859 51.6268 26.5019 51.1598 28.0239 50.2468Z" fill="white"/>
<path d="M22.0379 39.2058C21.4799 39.7958 21.5059 40.7248 22.0949 41.2828C22.3789 41.5518 22.7419 41.6848 23.1049 41.6848C23.4949 41.6848 23.8839 41.5308 24.1729 41.2248C25.4089 39.9188 26.8269 39.2838 28.5069 39.2838C30.8549 39.2838 32.4479 40.9698 32.4839 41.0088C33.0259 41.6068 33.9499 41.6558 34.5529 41.1168C35.1579 40.5758 35.2089 39.6468 34.6679 39.0418C34.5699 38.9318 32.2119 36.3438 28.5069 36.3438C26.0099 36.3458 23.8329 37.3078 22.0379 39.2058Z" fill="#E36127"/>
<path d="M77.1659 49.8478C75.6439 50.7608 73.8279 51.2288 72.0019 51.2588C72.0019 51.2548 72.0029 51.2508 72.0029 51.2468C71.9829 51.6148 71.9719 51.9888 71.9719 52.3668C71.9719 58.2348 74.4389 60.0008 77.4809 60.0008C80.5239 60.0008 82.9899 58.2348 82.9899 52.3668C82.9899 48.9398 82.1449 45.8998 80.8389 43.9578C80.3799 46.4018 78.7759 48.6398 77.1659 49.8478Z" fill="#2B0020"/>
<path d="M77.166 49.8478C78.777 48.6398 80.3809 46.4008 80.8389 43.9568L80.838 43.9558C80.404 43.3108 79.9189 42.7928 79.3979 42.4158C79.3429 42.3758 79.288 42.3348 79.231 42.2978C79.145 42.2418 79.056 42.1918 78.968 42.1438C78.889 42.1008 78.809 42.0618 78.728 42.0248C78.651 41.9898 78.574 41.9568 78.496 41.9288C78.393 41.8918 78.2889 41.8628 78.1839 41.8368C78.1219 41.8208 78.06 41.8018 77.998 41.7908C77.827 41.7598 77.655 41.7398 77.4799 41.7398C77.2959 41.7398 77.1139 41.7588 76.9339 41.7928C76.8739 41.8038 76.816 41.8268 76.757 41.8418C76.638 41.8718 76.52 41.9018 76.403 41.9458C76.333 41.9728 76.2659 42.0098 76.1969 42.0408C76.0939 42.0888 75.9899 42.1348 75.8889 42.1928C75.8169 42.2348 75.7479 42.2848 75.6779 42.3318C75.5839 42.3948 75.4889 42.4578 75.3969 42.5298C75.3259 42.5858 75.256 42.6498 75.187 42.7118C75.1 42.7888 75.0129 42.8668 74.9279 42.9528C74.8589 43.0228 74.791 43.0988 74.724 43.1738C74.643 43.2648 74.5619 43.3568 74.4839 43.4548C74.4179 43.5378 74.3529 43.6258 74.2879 43.7138C74.2129 43.8168 74.1389 43.9228 74.0669 44.0328C74.0039 44.1288 73.943 44.2268 73.882 44.3278C73.813 44.4418 73.747 44.5598 73.681 44.6808C73.623 44.7878 73.5649 44.8968 73.5089 45.0098C73.4469 45.1348 73.3869 45.2638 73.3279 45.3948C73.2749 45.5128 73.222 45.6318 73.171 45.7548C73.115 45.8898 73.0629 46.0288 73.0109 46.1688C72.9629 46.2968 72.9149 46.4258 72.8699 46.5578C72.8209 46.7018 72.7759 46.8508 72.7309 46.9998C72.6889 47.1368 72.6469 47.2728 72.6079 47.4138C72.5659 47.5668 72.529 47.7258 72.491 47.8828C72.456 48.0278 72.4189 48.1708 72.3869 48.3188C72.3519 48.4818 72.323 48.6498 72.293 48.8158C72.265 48.9658 72.235 49.1138 72.211 49.2678C72.183 49.4468 72.1619 49.6318 72.1379 49.8148C72.1189 49.9618 72.0969 50.1058 72.0809 50.2548C72.0469 50.5788 72.021 50.9088 72.003 51.2418C72.003 51.2458 72.002 51.2498 72.002 51.2538C73.827 51.2288 75.644 50.7608 77.166 49.8478Z" fill="white"/>
<path d="M71.179 38.8078C70.621 39.3978 70.647 40.3268 71.236 40.8848C71.52 41.1538 71.883 41.2868 72.246 41.2868C72.636 41.2868 73.025 41.1328 73.314 40.8268C74.55 39.5208 75.968 38.8858 77.648 38.8858C79.991 38.8858 81.5831 40.5658 81.6251 40.6108C81.9141 40.9308 82.312 41.0888 82.712 41.0888C83.062 41.0898 83.4131 40.9708 83.6941 40.7198C84.2991 40.1788 84.35 39.2498 83.809 38.6448C83.76 38.5908 83.161 37.9348 82.124 37.2828C81.057 36.6128 79.5271 35.9468 77.6471 35.9468C75.1511 35.9478 72.975 36.9098 71.179 38.8078Z" fill="#E36127"/>
<path d="M61.5201 89.1668C58.8871 89.1668 56.3082 88.0848 53.8352 85.9428C52.2682 87.2018 49.0281 89.3438 45.4421 88.9758C42.7981 88.7058 40.5341 87.1648 38.7131 84.3938C38.3011 83.7678 38.4751 82.9258 39.1021 82.5148C39.7271 82.1028 40.5681 82.2768 40.9811 82.9028C42.3331 84.9578 43.9261 86.0929 45.7181 86.2759C49.3071 86.6469 52.8661 83.1948 52.9011 83.1598C53.4281 82.6328 54.2811 82.6288 54.8131 83.1518C57.1771 85.4788 59.5722 86.5858 61.9482 86.4398C65.5992 86.2158 68.1251 83.0838 68.1511 83.0518C68.6161 82.4658 69.4701 82.3658 70.0551 82.8278C70.6421 83.2908 70.7451 84.1398 70.2841 84.7278C70.1531 84.8958 67.0172 88.8308 62.1441 89.1458C61.9352 89.1598 61.7271 89.1668 61.5201 89.1668Z" fill="#2B0020"/>
<path d="M53.8589 85.4748C53.1089 85.4748 52.502 84.8678 52.502 84.1178V71.7718C52.502 71.0228 53.1089 70.4148 53.8589 70.4148C54.6079 70.4148 55.216 71.0218 55.216 71.7718V84.1178C55.216 84.8678 54.6079 85.4748 53.8589 85.4748Z" fill="#2B0020"/>
</svg>
