<svg width="123" height="129" viewBox="0 0 123 129" fill="none" xmlns="http://www.w3.org/2000/svg">
<path d="M113.527 76.1657C118.309 47.2067 98.7091 19.8547 69.7501 15.0732C40.7912 10.2918 13.4391 29.8915 8.65765 58.8504C3.87616 87.8094 23.4759 115.161 52.4348 119.943C81.3938 124.724 108.746 105.125 113.527 76.1657Z" fill="#2B0020"/>
<path d="M61.0946 120.647C76.4336 120.647 90.2526 114.146 99.9536 103.752C91.8036 85.1044 74.5636 71.7424 61.0946 71.2654C49.6066 70.8584 29.1196 83.6124 22.2356 103.752C31.9366 114.146 45.7556 120.647 61.0946 120.647Z" fill="#E39635"/>
<path opacity="0.15" d="M94.2538 93.5243C85.2328 80.3943 71.9428 71.6494 61.0948 71.2654C51.3318 70.9194 35.0738 80.0833 26.1848 95.2033C46.8098 108.426 72.9278 105.043 94.2538 93.5243Z" fill="black"/>
<path d="M106.598 26.4233C99.9247 11.0243 80.8017 6.23135 68.8447 4.96035C71.5167 3.18735 71.8557 0.0383505 69.0217 0.000350511C65.4837 -0.0456495 62.8987 4.45135 62.8987 4.45135C61.3887 1.55335 56.2837 0.759352 55.5727 2.60235C55.2427 3.45835 56.2657 4.12635 57.4557 4.59635C46.7567 4.99835 22.4357 8.63535 14.7277 26.4233C5.92669 46.7343 9.98869 75.5294 13.0347 78.3113C14.9207 80.0343 15.5087 77.7393 15.6837 75.7423C15.6857 78.9943 16.0257 84.5954 18.2817 85.6644C19.9937 86.4753 20.8907 84.4104 21.3547 82.3014C21.2227 84.7704 21.4937 87.6704 23.3597 88.3404C26.7447 89.5574 27.4217 82.2784 27.4217 82.2784C27.4217 82.2784 27.4217 91.2493 30.8067 92.0953C34.1917 92.9413 35.2497 84.2774 35.2497 84.2774C35.2497 84.2774 35.7157 91.7034 38.0847 92.1534C40.4547 92.6034 41.6817 86.6894 41.6817 86.6894C41.6817 86.6894 42.8547 93.2804 50.6247 93.6184C54.3207 93.7794 55.7977 92.0254 56.3317 90.1413C56.5547 92.0323 57.2097 93.7943 58.9027 93.6283C59.7267 93.5473 60.2867 88.7154 60.6617 81.3434C61.0367 88.7164 61.5967 93.5473 62.4207 93.6283C64.1147 93.7943 64.7697 92.0323 64.9917 90.1413C65.5257 92.0244 67.0027 93.7784 70.6987 93.6184C78.4687 93.2794 79.6417 86.6894 79.6417 86.6894C79.6417 86.6894 80.8697 92.6034 83.2387 92.1534C85.6087 91.7034 86.0737 84.2774 86.0737 84.2774C86.0737 84.2774 87.1317 92.9413 90.5167 92.0953C93.9017 91.2493 93.9017 82.2784 93.9017 82.2784C93.9017 82.2784 94.5787 89.5564 97.9637 88.3404C99.8297 87.6694 100.101 84.7694 99.9687 82.3014C100.433 84.4104 101.33 86.4753 103.042 85.6644C105.298 84.5964 105.638 78.9943 105.64 75.7423C105.815 77.7403 106.403 80.0343 108.289 78.3113C111.337 75.5294 115.399 46.7343 106.598 26.4233Z" fill="#EDB348"/>
<path opacity="0.15" d="M25.2987 28.6634C28.9017 25.4604 27.0977 19.3514 24.5807 14.4734C20.4227 17.4884 16.9087 21.3884 14.7267 26.4234C14.2167 27.6014 13.7507 28.8084 13.3247 30.0364C17.6347 30.5514 23.7737 29.5474 25.2987 28.6634Z" fill="black"/>
<path opacity="0.15" d="M96.0166 28.6634C92.4136 25.4604 94.2176 19.3514 96.7346 14.4734C100.893 17.4884 104.407 21.3884 106.589 26.4234C107.099 27.6014 107.565 28.8084 107.991 30.0364C103.681 30.5514 97.5406 29.5474 96.0166 28.6634Z" fill="black"/>
<path opacity="0.15" d="M98.7236 59.0064C98.7236 82.2084 61.4116 93.6394 61.4116 93.6394C61.4116 93.6394 24.0996 82.2084 24.0996 59.0064C24.0996 35.8044 40.8046 16.9964 61.4116 16.9964C82.0186 16.9964 98.7236 35.8054 98.7236 59.0064Z" fill="black"/>
<path d="M98.7236 49.6923C98.7236 69.9993 82.0186 75.0683 61.4116 75.0683C40.8046 75.0683 24.0996 70.0004 24.0996 49.6923C24.0996 29.3843 40.8046 12.9223 61.4116 12.9223C82.0186 12.9223 98.7236 29.3843 98.7236 49.6923Z" fill="#E39635"/>
<path d="M74.4877 99.3173H47.7027C45.4737 99.3173 43.5207 97.6393 43.2857 95.4913L40.4167 69.3333C40.1057 66.5013 42.0707 64.1083 44.7597 64.1083H77.4317C80.1197 64.1083 82.0847 66.5013 81.7747 69.3333L78.9057 95.4913C78.6687 97.6393 76.7167 99.3173 74.4877 99.3173Z" fill="#F3C07B"/>
<path d="M47.9878 90.7033L45.7668 70.4534C45.6138 69.0584 46.7068 67.8383 48.1098 67.8383H74.0798C75.4838 67.8383 76.5758 69.0574 76.4228 70.4534L74.2018 90.7033C74.0708 91.8983 73.0608 92.8034 71.8588 92.8034H50.3308C49.1288 92.8044 48.1188 91.8993 47.9878 90.7033Z" fill="#2B0020"/>
<path d="M50.3307 92.8043H71.8587C73.0607 92.8043 74.0707 91.8994 74.2017 90.7044L74.7707 85.5203C71.2917 82.4803 66.4507 80.5934 61.0947 80.5934C55.7387 80.5934 50.8977 82.4803 47.4187 85.5193L47.9877 90.7033C48.1187 91.8993 49.1287 92.8043 50.3307 92.8043Z" fill="#DF3140"/>
<path d="M71.9688 92.8043C71.9688 92.8043 71.3848 89.9304 69.7478 89.3364C68.1118 88.7414 66.5918 92.8043 66.5918 92.8043H71.9688Z" fill="white"/>
<path d="M50.2207 92.8043C50.2207 92.8043 50.8047 89.9304 52.4417 89.3364C54.0777 88.7414 55.5977 92.8043 55.5977 92.8043H50.2207Z" fill="white"/>
<path d="M47.4187 76.1703C47.4187 76.1703 48.1537 80.9994 50.2117 81.9994C52.2697 82.9984 54.1807 76.1703 54.1807 76.1703H47.4187Z" fill="white"/>
<path d="M74.7708 76.1703C74.7708 76.1703 74.0358 80.9994 71.9778 81.9994C69.9198 82.9984 68.0088 76.1703 68.0088 76.1703H74.7708Z" fill="white"/>
<path d="M61.4118 55.8654C50.3388 55.8654 33.8758 56.0574 36.2748 72.2534C37.7488 82.2034 56.0028 80.3344 60.4428 73.1674C60.8948 72.4384 61.9288 72.4384 62.3808 73.1674C66.8208 80.3344 85.0748 82.2024 86.5488 72.2534C88.9478 56.0574 72.4838 55.8654 61.4118 55.8654Z" fill="#F6DB99"/>
<path d="M72.5897 60.0033C72.5897 63.2253 67.5817 63.6663 61.4047 63.6663C55.2277 63.6663 50.2197 63.2253 50.2197 60.0033C50.2197 56.7813 55.2267 54.1693 61.4047 54.1693C67.5817 54.1693 72.5897 56.7813 72.5897 60.0033Z" fill="#2B0020"/>
<path d="M50.2207 48.4714C50.2207 53.5294 48.0947 55.0514 45.4717 55.0514C42.8487 55.0514 40.7227 53.5294 40.7227 48.4714C40.7227 43.4134 42.8487 39.3123 45.4717 39.3123C48.0947 39.3123 50.2207 43.4134 50.2207 48.4714Z" fill="#2B0020"/>
<path d="M48.3665 41.2224C47.5645 40.0294 46.5625 39.3123 45.4715 39.3123C43.0165 39.3123 40.9965 42.9064 40.7485 47.5154C42.3225 47.4894 43.8885 47.0864 45.1995 46.2994C46.5885 45.2584 47.9715 43.3294 48.3665 41.2224Z" fill="white"/>
<path d="M82.0876 48.4714C82.0876 53.5294 79.9616 55.0514 77.3386 55.0514C74.7156 55.0514 72.5896 53.5294 72.5896 48.4714C72.5896 43.4134 74.7156 39.3123 77.3386 39.3123C79.9606 39.3123 82.0876 43.4134 82.0876 48.4714Z" fill="#2B0020"/>
<path d="M80.2325 41.2224C79.4305 40.0294 78.4285 39.3123 77.3375 39.3123C74.8825 39.3123 72.8625 42.9064 72.6145 47.5154C74.1885 47.4894 75.7545 47.0864 77.0655 46.2994C78.4555 45.2584 79.8385 43.3294 80.2325 41.2224Z" fill="white"/>
<path d="M40.5847 38.0153C40.2497 38.0153 39.9147 37.8923 39.6527 37.6443C39.1087 37.1293 39.0847 36.2713 39.5997 35.7263C41.1647 34.0723 43.0627 33.2333 45.2407 33.2333C48.4737 33.2333 50.5327 35.4923 50.6197 35.5893C51.1197 36.1473 51.0717 37.0053 50.5127 37.5053C49.9577 38.0033 49.1037 37.9583 48.6027 37.4053C48.5657 37.3653 47.2177 35.9473 45.2407 35.9473C43.8177 35.9473 42.6177 36.4853 41.5707 37.5923C41.3037 37.8733 40.9447 38.0153 40.5847 38.0153Z" fill="#DE8316"/>
<path d="M71.9266 38.0153C71.5916 38.0153 71.2566 37.8923 70.9946 37.6443C70.4506 37.1293 70.4266 36.2713 70.9406 35.7263C72.5056 34.0723 74.4046 33.2333 76.5816 33.2333C79.8156 33.2333 81.8736 35.4923 81.9596 35.5893C82.4596 36.1483 82.4116 37.0063 81.8536 37.5053C81.2956 38.0033 80.4436 37.9573 79.9436 37.4053C79.9076 37.3673 78.5606 35.9473 76.5826 35.9473C75.1596 35.9473 73.9596 36.4853 72.9126 37.5923C72.6446 37.8733 72.2866 38.0153 71.9266 38.0153Z" fill="#DE8316"/>
<path d="M85.5977 18.5364C84.7147 18.0394 84.2867 17.0264 84.8317 16.1714C87.0377 12.7114 92.5267 5.53536 99.0947 7.52936C107.213 9.99336 107.229 23.7184 97.3217 28.6704C96.4637 29.0994 95.6127 28.5904 95.0877 27.7884C93.0747 24.7114 90.1187 21.0814 85.5977 18.5364Z" fill="#E39635"/>
<path d="M99.1486 15.0933C98.0636 12.3793 94.2636 11.2943 91.0076 12.9223C88.8126 14.4903 87.3456 16.6023 86.2856 18.9423C89.8116 21.0873 92.3366 23.8843 94.1866 26.4713C98.0786 24.0943 101.15 19.5953 99.1486 15.0933Z" fill="#F6DB99"/>
<path d="M35.7277 18.5364C36.6107 18.0394 37.0387 17.0264 36.4947 16.1714C34.2887 12.7114 28.7997 5.53536 22.2317 7.52936C14.1137 9.99336 14.0977 23.7184 24.0047 28.6704C24.8627 29.0994 25.7137 28.5904 26.2387 27.7884C28.2497 24.7114 31.2067 21.0814 35.7277 18.5364Z" fill="#E39635"/>
<path d="M22.1758 15.0933C23.2608 12.3793 27.0608 11.2943 30.3168 12.9223C32.5118 14.4903 33.9788 16.6023 35.0388 18.9423C31.5128 21.0873 28.9878 23.8843 27.1378 26.4713C23.2458 24.0943 20.1758 19.5953 22.1758 15.0933Z" fill="#F6DB99"/>
</svg>
