<svg width="126" height="127" viewBox="0 0 126 127" fill="none" xmlns="http://www.w3.org/2000/svg">
<path d="M63.6565 126.284C93.0088 126.284 116.804 102.489 116.804 73.1371C116.804 43.7849 93.0088 19.9901 63.6565 19.9901C34.3042 19.9901 10.5095 43.7849 10.5095 73.1371C10.5095 102.489 34.3042 126.284 63.6565 126.284Z" fill="#4AB6B8"/>
<path d="M125.699 72.4461C124.308 68.6831 110.711 61.1601 101.502 56.4211C97.2805 54.2481 94.2845 50.2531 93.4105 45.5861C90.1135 27.9901 84.9855 8.63214 69.1845 2.27313C46.9325 -6.68186 25.7665 11.6901 27.3945 42.1231C27.5315 44.6911 27.5765 47.3371 27.5425 50.0311C27.4915 54.1381 25.7965 58.0511 22.8485 60.9111C14.4955 69.0141 0.262483 83.5071 0.00348341 88.4381C-0.236517 92.9931 11.9665 92.1601 23.8025 85.7341C22.5925 92.6551 21.2795 98.8711 20.1765 103.704C29.7945 117.362 45.6835 126.286 63.6575 126.286C83.3855 126.286 100.602 115.537 109.772 99.5761C107.049 93.7571 102.29 88.0251 99.9205 75.0201C113.317 79.3711 127.288 76.7451 125.699 72.4461Z" fill="#2B0020"/>
<path d="M39.8765 27.2381C53.9875 31.5801 68.0985 26.6951 80.0375 20.1831C82.6585 18.8041 83.7345 17.2491 83.8225 15.5991C80.3255 9.65513 75.6485 4.87514 69.1835 2.27314C53.4135 -4.07285 38.1915 3.30816 31.2395 18.9782C32.7905 22.8462 35.6215 25.9611 39.8765 27.2381Z" fill="#4B2640"/>
<path d="M56.7015 44.6051C33.2555 61.9731 30.6525 91.1501 35.5505 118.244C43.7045 123.336 53.3355 126.284 63.6575 126.284C80.1665 126.284 94.9135 118.754 104.661 106.944C92.5695 91.7131 94.9295 69.9451 86.5515 52.2041C81.1235 40.8071 66.4705 37.0071 56.7015 44.6051Z" fill="#F6DB99"/>
<path opacity="0.45" d="M76.1934 49.2311C77.4514 47.9731 77.9804 45.8021 78.5204 43.4601C72.5764 39.9711 65.0544 39.5991 58.8884 43.1401C64.9174 47.0011 71.2874 53.2441 76.1934 49.2311Z" fill="black"/>
<path d="M51.2734 30.1311C51.2734 30.1311 68.2785 48.0431 73.5255 46.7771C78.7715 45.5111 76.7814 27.4201 75.6964 26.1541C74.6104 24.8871 51.2734 30.1311 51.2734 30.1311Z" fill="#DD800B"/>
<path opacity="0.25" d="M73.8875 26.5151C73.8875 26.5151 74.9725 41.5302 72.9825 42.2542C70.9925 42.9781 57.9675 31.9421 57.9675 31.9421C57.9675 31.9421 69.4805 27.7811 73.8875 26.5151Z" fill="black"/>
<path d="M55.6156 24.2192C55.6156 24.2192 56.7006 18.9292 62.3996 17.7922C68.0986 16.6552 67.6336 21.0971 72.2006 20.6771C79.6756 19.9901 85.2136 11.1921 90.6206 12.7381C94.5106 13.8511 87.2736 25.0671 73.1176 30.1301C59.4456 35.0201 53.1726 33.2941 51.2726 30.1301C49.3746 26.9671 55.6156 24.2192 55.6156 24.2192Z" fill="#E39635"/>
<path opacity="0.45" d="M65.5554 109.88C62.9254 109.88 60.1315 109.586 57.2125 108.88C56.4835 108.704 56.0355 107.971 56.2125 107.243C56.3885 106.514 57.1225 106.067 57.8495 106.243C73.8535 110.11 86.1164 100.365 86.2384 100.266C86.8204 99.7942 87.6754 99.8841 88.1474 100.466C88.6194 101.048 88.5295 101.902 87.9475 102.375C87.4985 102.738 78.5084 109.88 65.5554 109.88Z" fill="black"/>
<path opacity="0.45" d="M69.1315 115.291C67.4815 115.291 65.6815 115.089 63.7735 114.569C63.0505 114.372 62.6245 113.627 62.8215 112.903C63.0185 112.18 63.7635 111.756 64.4875 111.951C71.7995 113.942 77.3625 110.518 77.4175 110.483C78.0505 110.085 78.8885 110.274 79.2885 110.909C79.6875 111.543 79.4965 112.381 78.8625 112.78C78.6545 112.91 74.7875 115.291 69.1315 115.291Z" fill="black"/>
<path d="M54.6315 17.8561C54.1295 15.3871 53.0755 13.3211 51.8495 12.1131C51.8775 13.9411 51.0495 15.7891 50.0665 16.8951C49.1035 17.7761 47.8645 18.3791 46.5525 18.6681C46.5525 18.6651 46.5515 18.6621 46.5515 18.6591C46.5915 18.9271 46.6375 19.1981 46.6935 19.4711C47.5535 23.6981 49.5885 24.6091 51.7805 24.1631C53.9725 23.7171 55.4905 22.0831 54.6315 17.8561Z" fill="#2B0020"/>
<path d="M50.0666 16.8952C51.0496 15.7892 51.8776 13.9411 51.8496 12.1131H51.8486C51.4416 11.7121 51.0156 11.4092 50.5846 11.2142C50.5386 11.1932 50.4936 11.1722 50.4476 11.1542C50.3766 11.1262 50.3066 11.1031 50.2356 11.0821C50.1726 11.0621 50.1086 11.0461 50.0456 11.0311C49.9856 11.0171 49.9246 11.0051 49.8646 10.9961C49.7856 10.9841 49.7056 10.9791 49.6266 10.9761C49.5796 10.9741 49.5326 10.9691 49.4856 10.9701C49.3576 10.9731 49.2306 10.9841 49.1046 11.0101C48.9716 11.0371 48.8436 11.0772 48.7186 11.1282C48.6766 11.1452 48.6376 11.1701 48.5966 11.1901C48.5156 11.2291 48.4356 11.2671 48.3586 11.3161C48.3126 11.3461 48.2686 11.3821 48.2236 11.4151C48.1566 11.4641 48.0886 11.5131 48.0246 11.5691C47.9786 11.6101 47.9366 11.6561 47.8926 11.7011C47.8336 11.7601 47.7756 11.8191 47.7196 11.8851C47.6766 11.9361 47.6356 11.9922 47.5946 12.0472C47.5436 12.1152 47.4916 12.1842 47.4436 12.2582C47.4036 12.3192 47.3666 12.3832 47.3286 12.4482C47.2836 12.5252 47.2396 12.6032 47.1976 12.6852C47.1616 12.7552 47.1276 12.8271 47.0946 12.9011C47.0556 12.9861 47.0176 13.0732 46.9826 13.1632C46.9516 13.2412 46.9216 13.3211 46.8926 13.4031C46.8596 13.4951 46.8286 13.5901 46.7996 13.6871C46.7736 13.7731 46.7476 13.8601 46.7236 13.9491C46.6966 14.0481 46.6726 14.1501 46.6496 14.2521C46.6286 14.3451 46.6076 14.4391 46.5886 14.5351C46.5686 14.6401 46.5506 14.7481 46.5336 14.8561C46.5176 14.9561 46.5016 15.0552 46.4886 15.1582C46.4746 15.2692 46.4636 15.3831 46.4536 15.4971C46.4436 15.6021 46.4326 15.7062 46.4256 15.8142C46.4176 15.9312 46.4146 16.0511 46.4096 16.1701C46.4056 16.2791 46.4006 16.3871 46.3996 16.4981C46.3986 16.6211 46.4026 16.7471 46.4046 16.8721C46.4066 16.9841 46.4066 17.0941 46.4116 17.2081C46.4176 17.3411 46.4296 17.4781 46.4396 17.6131C46.4476 17.7221 46.4526 17.8291 46.4636 17.9381C46.4866 18.1761 46.5166 18.4171 46.5516 18.6611C46.5526 18.6641 46.5526 18.6671 46.5526 18.6701C47.8636 18.3781 49.1036 17.7752 50.0666 16.8952Z" fill="white"/>
<path d="M44.1365 8.19114C43.8205 8.69714 43.9755 9.36315 44.4825 9.67915C44.7265 9.83115 45.0075 9.87414 45.2685 9.82014C45.5495 9.76314 45.8065 9.59513 45.9705 9.33213C46.6695 8.21013 47.5975 7.54514 48.8085 7.29914C50.4995 6.95514 51.8945 7.93615 51.9265 7.95915C52.4045 8.31015 53.0775 8.21114 53.4325 7.73414C53.7885 7.25514 53.6895 6.57815 53.2115 6.22215C53.1245 6.15715 51.0465 4.63913 48.3785 5.18113C46.5785 5.54813 45.1515 6.56014 44.1365 8.19114Z" fill="#2B0020"/>
<path d="M70.6575 11.0491C69.6955 11.9301 68.4555 12.5331 67.1445 12.8221C67.1435 12.8191 67.1436 12.8161 67.1436 12.8131C67.1836 13.0811 67.2296 13.3521 67.2856 13.6251C68.1456 17.8521 70.1805 18.7631 72.3725 18.3171C74.5645 17.8711 76.0825 16.2371 75.2225 12.0101C74.7205 9.54113 73.6665 7.47512 72.4405 6.26712C72.4685 8.09612 71.6405 9.94313 70.6575 11.0491Z" fill="#2B0020"/>
<path d="M70.6574 11.0491C71.6404 9.94314 72.4684 8.09513 72.4404 6.26713L72.4395 6.26615C72.0325 5.86515 71.6065 5.56314 71.1765 5.36814C71.1305 5.34714 71.0854 5.32615 71.0394 5.30815C70.9684 5.28015 70.8985 5.25715 70.8275 5.23615C70.7645 5.21615 70.7005 5.20016 70.6375 5.18516C70.5775 5.17116 70.5165 5.15916 70.4565 5.15016C70.3775 5.13816 70.2974 5.13314 70.2184 5.13014C70.1714 5.12814 70.1245 5.12315 70.0775 5.12415C69.9495 5.12715 69.8224 5.13813 69.6964 5.16413C69.5634 5.19113 69.4355 5.23114 69.3105 5.28214C69.2695 5.29914 69.2304 5.32415 69.1904 5.34315C69.1094 5.38215 69.0285 5.42113 68.9515 5.47013C68.9055 5.49913 68.8624 5.53613 68.8174 5.56913C68.7504 5.61813 68.6824 5.66713 68.6184 5.72413C68.5724 5.76413 68.5304 5.81114 68.4864 5.85514C68.4274 5.91414 68.3685 5.97313 68.3135 6.03913C68.2705 6.09013 68.2295 6.14615 68.1885 6.20115C68.1365 6.27015 68.0854 6.33816 68.0364 6.41316C67.9964 6.47416 67.9595 6.53815 67.9215 6.60215C67.8765 6.67915 67.8314 6.75716 67.7894 6.84016C67.7534 6.91016 67.7205 6.98215 67.6865 7.05515C67.6475 7.14015 67.6094 7.22715 67.5734 7.31715C67.5424 7.39515 67.5124 7.47514 67.4834 7.55714C67.4504 7.64914 67.4194 7.74413 67.3904 7.84113C67.3644 7.92713 67.3384 8.01416 67.3144 8.10316C67.2874 8.20216 67.2635 8.30414 67.2405 8.40714C67.2195 8.50014 67.1984 8.59313 67.1794 8.69013C67.1594 8.79513 67.1414 8.90316 67.1244 9.01216C67.1084 9.11215 67.0924 9.21115 67.0794 9.31315C67.0654 9.42415 67.0544 9.53814 67.0434 9.65214C67.0334 9.75714 67.0224 9.86116 67.0154 9.96916C67.0074 10.0862 67.0044 10.2051 66.9994 10.3241C66.9954 10.4331 66.9894 10.5421 66.9884 10.6531C66.9874 10.7751 66.9914 10.9012 66.9934 11.0252C66.9954 11.1372 66.9954 11.2481 67.0004 11.3621C67.0064 11.4951 67.0184 11.6321 67.0284 11.7671C67.0364 11.8751 67.0414 11.9831 67.0514 12.0921C67.0744 12.3301 67.1044 12.5721 67.1394 12.8151C67.1404 12.8181 67.1404 12.8211 67.1404 12.8241C68.4554 12.5331 69.6954 11.9301 70.6574 11.0491Z" fill="white"/>
<path d="M63.0994 3.43112C62.7834 3.93712 62.9384 4.60312 63.4454 4.91912C63.6894 5.07112 63.9704 5.11412 64.2314 5.06112C64.5124 5.00412 64.7694 4.83615 64.9334 4.57315C65.6324 3.45115 66.5604 2.78613 67.7714 2.54013C69.4594 2.19713 70.8524 3.17413 70.8894 3.20013C71.1444 3.38813 71.4543 3.44313 71.7423 3.38513C71.9943 3.33413 72.2304 3.19712 72.3954 2.97512C72.7514 2.49612 72.6524 1.82013 72.1744 1.46313C72.1314 1.43113 71.6034 1.04612 70.7614 0.729121C69.8944 0.402121 68.6944 0.147121 67.3414 0.423121C65.5414 0.789121 64.1144 1.80012 63.0994 3.43112Z" fill="#2B0020"/>
<path d="M64.0945 22.6791C64.0945 22.6791 60.8075 20.7671 60.6565 22.0321C60.5055 23.2961 63.4245 25.0711 64.0945 22.6791Z" fill="#DD800B"/>
</svg>
